{"title":"Winters.Tale.2014.SWESUB.BRRip.XviD-Lunatic","uid":10302116,"size":733368971,"categoryP":"video","categoryS":"movies","magnet":"?xt=urn:btih:f03367880b2c12278e5f49fc70f359019997476f&amp;dn=Winters.Tale.2014.SWESUB.BRRip.XviD-Lunatic&amp;tr=udp%3A%2F%2Ftracker.openbittorrent.com%3A80&amp;tr=udp%3A%2F%2Fopen.demonii.com%3A1337&amp;tr=udp%3A%2F%2Ftracker.coppersurfer.tk%3A6969&amp;tr=udp%3A%2F%2Fexodus.desync.com%3A6969","seeders":1,"leechers":1,"uploader":"Swesubtv","files":-1,"time":1401986096,"description":"\n\nOriginal: Winters.Tale.2014.BRRip.XviD-SaM[ETRG].avi\n\n\n\n\n\nGeneral\nFormat/Info                              : Audio Video Interleave\nFile size                                : 699 MiB\nDuration                                 : 1h 58mn\nOverall bit rate                         : 828 Kbps\n\nVideo\nFormat                                   : MPEG-4 Visual\nFormat profile                           : Advanced Simple@L5\nFormat settings, BVOP                    : 1\nFormat settings, QPel                    : No\nFormat settings, GMC                     : No warppoints\nFormat settings, Matrix                  : Default (H.263)\nMuxing mode                              : Packed bitstream\nCodec ID                                 : XVID\nCodec ID/Hint                            : XviD\nDuration                                 : 1h 58mn\nBit rate                                 : 690 Kbps\nWidth                                    : 640 pixels\nHeight                                   : 272 pixels\nDisplay aspect ratio                     : 2.35:1\nFrame rate                               : 23.976 fps\nColor space                              : YUV\nChroma subsampling                       : 4:2:0\nBit depth                                : 8 bits\nScan type                                : Progressive\nCompression mode                         : Lossy\nBits/(Pixel*Frame)                       : 0.165\nStream size                              : 583 MiB (83%)\nWriting library                          : XviD 64\n\nAudio\nFormat                                   : MPEG Audio\nFormat version                           : Version 1\nFormat profile                           : Layer 3\nMode                                     : Joint stereo\nMode extension                           : MS Stereo\nCodec ID                                 : 55\nCodec ID/Hint                            : MP3\nDuration                                 : 1h 58mn\nBit rate mode                            : Constant\nBit rate                                 : 128 Kbps\nChannel(s)                               : 2 channels\nSampling rate                            : 48.0 KHz\nCompression mode                         : Lossy\nStream size                              : 108 MiB (15%)\nAlignment                                : Split accross interleaves\nInterleave, duration                     : 42 ms (1.00 video frame)\n\nwww.swesub.tv\n\n","torrent":{"xt":"urn:btih:f03367880b2c12278e5f49fc70f359019997476f","amp;dn":"Winters.Tale.2014.SWESUB.BRRip.XviD-Lunatic","amp;tr":["udp%3A%2F%2Ftracker.openbittorrent.com%3A80","udp%3A%2F%2Fopen.demonii.com%3A1337","udp%3A%2F%2Ftracker.coppersurfer.tk%3A6969","udp%3A%2F%2Fexodus.desync.com%3A6969"],"infoHash":"f03367880b2c12278e5f49fc70f359019997476f","infoHashBuffer":{"type":"Buffer","data":[240,51,103,136,11,44,18,39,142,95,73,252,112,243,89,1,153,151,71,111]},"announce":[],"urlList":[]}}